<svg width="409" height="320" viewBox="0 0 409 320" fill="none" xmlns="http://www.w3.org/2000/svg">
<g id="dark">
<path id="moon" d="M240.43 143.094C225.921 128.579 216.039 110.088 212.034 89.9583C208.03 69.8287 210.082 48.9637 217.932 30C195.551 34.4058 174.993 45.3873 158.888 61.54C113.855 106.573 113.855 179.593 158.888 224.626C203.932 269.67 276.941 269.658 321.985 224.626C338.133 208.521 349.114 187.969 353.525 165.593C334.561 173.441 313.696 175.493 293.567 171.488C273.438 167.484 254.947 157.603 240.43 143.094Z" fill="#FFC82F"/>
<path id="star1" d="M335.081 266.73C334.987 266.452 334.813 266.208 334.582 266.028C334.35 265.847 334.071 265.739 333.779 265.716L325.227 265.036L321.527 256.844C321.409 256.581 321.217 256.357 320.975 256.199C320.732 256.042 320.45 255.958 320.161 255.958C319.872 255.958 319.589 256.041 319.346 256.198C319.104 256.355 318.912 256.579 318.794 256.843L315.093 265.036L306.542 265.716C306.254 265.738 305.98 265.843 305.751 266.018C305.521 266.193 305.347 266.43 305.249 266.701C305.151 266.972 305.134 267.266 305.198 267.547C305.263 267.827 305.407 268.084 305.613 268.285L311.933 274.446L309.698 284.124C309.63 284.417 309.652 284.723 309.76 285.004C309.869 285.284 310.059 285.525 310.306 285.696C310.554 285.867 310.847 285.96 311.148 285.962C311.448 285.964 311.743 285.876 311.993 285.709L320.16 280.264L328.328 285.709C328.583 285.879 328.885 285.966 329.191 285.959C329.498 285.953 329.795 285.852 330.043 285.672C330.291 285.491 330.477 285.239 330.577 284.949C330.678 284.659 330.687 284.345 330.603 284.05L327.86 274.45L334.664 268.327C335.109 267.925 335.273 267.298 335.081 266.73Z" fill="#FFC82F"/>
<path id="star2" d="M299.624 67.7715C299.53 67.4938 299.356 67.2498 299.125 67.0696C298.893 66.8894 298.614 66.7809 298.322 66.7575L289.77 66.078L286.07 57.8865C285.952 57.6226 285.76 57.3985 285.518 57.2412C285.275 57.0839 284.993 57.0002 284.704 57C284.415 56.9998 284.132 57.0833 283.889 57.2403C283.647 57.3974 283.455 57.6213 283.337 57.885L279.636 66.078L271.085 66.7575C270.797 66.7803 270.523 66.8853 270.294 67.0601C270.064 67.2349 269.89 67.472 269.792 67.7431C269.694 68.0141 269.677 68.3077 269.741 68.5886C269.806 68.8695 269.95 69.1259 270.156 69.327L276.476 75.4876L274.241 85.1656C274.173 85.4586 274.195 85.7652 274.303 86.0456C274.412 86.326 274.602 86.5674 274.849 86.7383C275.097 86.9092 275.39 87.0018 275.691 87.0041C275.991 87.0064 276.286 86.9183 276.536 86.7511L284.703 81.3061L292.871 86.7511C293.126 86.9208 293.428 87.0081 293.734 87.0014C294.041 86.9947 294.338 86.8942 294.586 86.7135C294.834 86.5328 295.02 86.2806 295.12 85.9907C295.221 85.7009 295.23 85.3873 295.146 85.0921L292.403 75.4921L299.207 69.369C299.652 68.967 299.816 68.34 299.624 67.7715Z" fill="#FFC82F"/>
<path id="star3" d="M83.9207 142.627C83.8264 142.349 83.6529 142.105 83.4215 141.925C83.1901 141.745 82.911 141.636 82.6187 141.613L74.0672 140.933L70.3666 132.742C70.2488 132.478 70.0571 132.254 69.8147 132.097C69.5723 131.939 69.2896 131.856 69.0006 131.855C68.7117 131.855 68.4288 131.939 68.1863 132.096C67.9437 132.253 67.7518 132.477 67.6336 132.74L63.9331 140.933L55.3815 141.613C55.0942 141.636 54.8196 141.741 54.5904 141.916C54.3612 142.09 54.1872 142.327 54.0893 142.599C53.9913 142.87 53.9735 143.163 54.0381 143.444C54.1026 143.725 54.2466 143.981 54.453 144.182L60.7726 150.343L58.5376 160.021C58.4697 160.314 58.4915 160.621 58.6 160.901C58.7085 161.181 58.8989 161.423 59.1463 161.594C59.3937 161.765 59.6868 161.857 59.9875 161.86C60.2881 161.862 60.5826 161.774 60.8326 161.607L69.0001 156.162L77.1677 161.607C77.4232 161.776 77.7245 161.864 78.0311 161.857C78.3377 161.85 78.635 161.75 78.8828 161.569C79.1306 161.388 79.3172 161.136 79.4173 160.846C79.5175 160.556 79.5265 160.243 79.4432 159.948L76.6997 150.348L83.5037 144.224C83.9492 143.822 84.1127 143.195 83.9207 142.627Z" fill="#FFC82F"/>
</g>
</svg>
