<svg width="409" height="320" viewBox="0 0 409 320" fill="none" xmlns="http://www.w3.org/2000/svg">
<g id="light">
<path id="sun" d="M189.855 146.333C189.855 180.386 217.556 208.086 251.608 208.086C285.66 208.086 313.361 180.386 313.361 146.333C313.361 112.281 285.66 84.5803 251.608 84.5803C217.556 84.5803 189.855 112.281 189.855 146.333ZM239.25 232.667H263.917V269.667H239.25V232.667ZM239.25 23H263.917V60H239.25V23ZM128.25 134H165.25V158.667H128.25V134ZM337.917 134H374.917V158.667H337.917V134ZM173.106 242.262L155.667 224.823L181.826 198.664L199.265 216.103L173.106 242.262ZM303.901 76.576L330.073 50.4047L347.512 67.844L321.341 94.0153L303.901 76.576ZM181.826 94.0277L155.667 67.8563L173.119 50.417L199.265 76.5883L181.826 94.0277ZM347.512 224.823L330.073 242.262L303.901 216.091L321.341 198.651L347.512 224.823Z" fill="#FFAA00"/>
<path id="cloud" d="M286.042 179.291C279.542 128.091 235.705 88.375 182.75 88.375C141.755 88.375 106.144 112.339 89.8854 150.106C57.9339 159.656 34 189.823 34 222.25C34 263.26 67.3646 296.625 108.375 296.625H272C304.814 296.625 331.5 269.939 331.5 237.125C331.477 223.791 326.987 210.849 318.748 200.366C310.508 189.883 298.993 182.463 286.042 179.291Z" fill="#F7F7F7"/>
</g>
</svg>
